name rise36.2859peak64.2979fall75.1499.mot
datacolumns 19
datarows 24
range 20.58492200000000 20.62325900000000
endheader
time	ground_force1_vx	ground_force1_vy	ground_force1_vz	ground_force1_px	ground_force1_py	ground_force1_pz	ground_force2_vx	ground_force2_vy	ground_force2_vz	ground_force2_px	ground_force2_py	ground_force2_pz	ground_torque1_x	ground_torque1_y	ground_torque1_z	ground_torque2_x	ground_torque2_y	ground_torque2_z	
20.58492200000000	62.63189800000000	762.39860499999998	57.38927500000000	0.41169800000000	0.00000000000000	0.09874500000000	0.00000000000000	0.00000000000000	0.00000000000000	0.00000000000000	0.00000000000000	0.00000000000000	0.00000000000000	34.40173600000000	0.00000000000000	0.00000000000000	0.00000000000000	0.00000000000000	
20.58658600000000	61.96986300000000	765.34410200000002	57.55192000000000	0.41043600000000	0.00000000000000	0.09872900000000	0.00000000000000	0.00000000000000	0.00000000000000	0.00000000000000	0.00000000000000	0.00000000000000	0.00000000000000	34.50179000000000	0.00000000000000	0.00000000000000	0.00000000000000	0.00000000000000	
20.58825800000000	61.30475500000000	768.14932699999997	57.71474600000000	0.40918900000000	0.00000000000000	0.09871400000000	0.00000000000000	0.00000000000000	0.00000000000000	0.00000000000000	0.00000000000000	0.00000000000000	0.00000000000000	34.60321600000000	0.00000000000000	0.00000000000000	0.00000000000000	0.00000000000000	
20.58992300000000	60.63726100000000	770.81201699999997	57.87729300000000	0.40795600000000	0.00000000000000	0.09870000000000	0.00000000000000	0.00000000000000	0.00000000000000	0.00000000000000	0.00000000000000	0.00000000000000	0.00000000000000	34.70567600000000	0.00000000000000	0.00000000000000	0.00000000000000	0.00000000000000	
20.59159000000000	59.96801100000000	773.33006200000000	58.03902600000000	0.40673900000000	0.00000000000000	0.09868600000000	0.00000000000000	0.00000000000000	0.00000000000000	0.00000000000000	0.00000000000000	0.00000000000000	0.00000000000000	34.80877500000000	0.00000000000000	0.00000000000000	0.00000000000000	0.00000000000000	
20.59325900000000	59.29757700000000	775.70152299999995	58.19934800000000	0.40553700000000	0.00000000000000	0.09867300000000	0.00000000000000	0.00000000000000	0.00000000000000	0.00000000000000	0.00000000000000	0.00000000000000	0.00000000000000	34.91207000000000	0.00000000000000	0.00000000000000	0.00000000000000	0.00000000000000	
20.59492200000000	58.62647400000000	777.92464900000004	58.35759900000000	0.40435000000000	0.00000000000000	0.09866000000000	0.00000000000000	0.00000000000000	0.00000000000000	0.00000000000000	0.00000000000000	0.00000000000000	0.00000000000000	35.01507100000000	0.00000000000000	0.00000000000000	0.00000000000000	0.00000000000000	
20.59658600000000	57.95516500000000	779.99788699999999	58.51306900000000	0.40317900000000	0.00000000000000	0.09864800000000	0.00000000000000	0.00000000000000	0.00000000000000	0.00000000000000	0.00000000000000	0.00000000000000	0.00000000000000	35.11725100000000	0.00000000000000	0.00000000000000	0.00000000000000	0.00000000000000	
20.59825100000000	57.28406100000000	781.91989899999999	58.66500300000000	0.40202300000000	0.00000000000000	0.09863600000000	0.00000000000000	0.00000000000000	0.00000000000000	0.00000000000000	0.00000000000000	0.00000000000000	0.00000000000000	35.21804800000000	0.00000000000000	0.00000000000000	0.00000000000000	0.00000000000000	
20.59992100000000	56.61352500000000	783.68957300000000	58.81261000000000	0.40088200000000	0.00000000000000	0.09862500000000	0.00000000000000	0.00000000000000	0.00000000000000	0.00000000000000	0.00000000000000	0.00000000000000	0.00000000000000	35.31687000000000	0.00000000000000	0.00000000000000	0.00000000000000	0.00000000000000	
20.60158900000000	55.94387500000000	785.30603499999995	58.95507000000000	0.39975600000000	0.00000000000000	0.09861400000000	0.00000000000000	0.00000000000000	0.00000000000000	0.00000000000000	0.00000000000000	0.00000000000000	0.00000000000000	35.41310600000000	0.00000000000000	0.00000000000000	0.00000000000000	0.00000000000000	
20.60325800000000	55.27538700000000	786.76865999999995	59.09154600000000	0.39864500000000	0.00000000000000	0.09860200000000	0.00000000000000	0.00000000000000	0.00000000000000	0.00000000000000	0.00000000000000	0.00000000000000	0.00000000000000	35.50612800000000	0.00000000000000	0.00000000000000	0.00000000000000	0.00000000000000	
20.60491900000000	54.60829700000000	788.07708200000002	59.22118300000000	0.39754700000000	0.00000000000000	0.09859100000000	0.00000000000000	0.00000000000000	0.00000000000000	0.00000000000000	0.00000000000000	0.00000000000000	0.00000000000000	35.59529500000000	0.00000000000000	0.00000000000000	0.00000000000000	0.00000000000000	
20.60658700000000	53.94280500000000	789.23119799999995	59.34312600000000	0.39646300000000	0.00000000000000	0.09858100000000	0.00000000000000	0.00000000000000	0.00000000000000	0.00000000000000	0.00000000000000	0.00000000000000	0.00000000000000	35.67996300000000	0.00000000000000	0.00000000000000	0.00000000000000	0.00000000000000	
20.60825900000000	53.27908000000000	790.23118299999999	59.45652300000000	0.39539200000000	0.00000000000000	0.09857000000000	0.00000000000000	0.00000000000000	0.00000000000000	0.00000000000000	0.00000000000000	0.00000000000000	0.00000000000000	35.75948900000000	0.00000000000000	0.00000000000000	0.00000000000000	0.00000000000000	
20.60991900000000	52.61725800000000	791.07748800000002	59.56053100000000	0.39433300000000	0.00000000000000	0.09855900000000	0.00000000000000	0.00000000000000	0.00000000000000	0.00000000000000	0.00000000000000	0.00000000000000	0.00000000000000	35.83323300000000	0.00000000000000	0.00000000000000	0.00000000000000	0.00000000000000	
20.61158500000000	51.95745300000000	791.77084700000000	59.65432600000000	0.39328600000000	0.00000000000000	0.09854800000000	0.00000000000000	0.00000000000000	0.00000000000000	0.00000000000000	0.00000000000000	0.00000000000000	0.00000000000000	35.90056900000000	0.00000000000000	0.00000000000000	0.00000000000000	0.00000000000000	
20.61325200000000	51.29975400000000	792.31228199999998	59.73711200000000	0.39224900000000	0.00000000000000	0.09853600000000	0.00000000000000	0.00000000000000	0.00000000000000	0.00000000000000	0.00000000000000	0.00000000000000	0.00000000000000	35.96088500000000	0.00000000000000	0.00000000000000	0.00000000000000	0.00000000000000	
20.61492100000000	50.64423300000000	792.70310099999995	59.80812200000000	0.39122200000000	0.00000000000000	0.09852500000000	0.00000000000000	0.00000000000000	0.00000000000000	0.00000000000000	0.00000000000000	0.00000000000000	0.00000000000000	36.01359300000000	0.00000000000000	0.00000000000000	0.00000000000000	0.00000000000000	
20.61658600000000	49.99094400000000	792.94490399999995	59.86663100000000	0.39020400000000	0.00000000000000	0.09851400000000	0.00000000000000	0.00000000000000	0.00000000000000	0.00000000000000	0.00000000000000	0.00000000000000	0.00000000000000	36.05812600000000	0.00000000000000	0.00000000000000	0.00000000000000	0.00000000000000	
20.61825200000000	49.33992900000000	793.03957500000001	59.91195500000000	0.38919500000000	0.00000000000000	0.09850200000000	0.00000000000000	0.00000000000000	0.00000000000000	0.00000000000000	0.00000000000000	0.00000000000000	0.00000000000000	36.09395200000000	0.00000000000000	0.00000000000000	0.00000000000000	0.00000000000000	
20.61992200000000	48.69122200000000	792.98928300000000	59.94346300000000	0.38819200000000	0.00000000000000	0.09849000000000	0.00000000000000	0.00000000000000	0.00000000000000	0.00000000000000	0.00000000000000	0.00000000000000	0.00000000000000	36.12056900000000	0.00000000000000	0.00000000000000	0.00000000000000	0.00000000000000	
20.62158400000000	48.04484700000000	792.79648199999997	59.96058000000000	0.38719500000000	0.00000000000000	0.09847700000000	0.00000000000000	0.00000000000000	0.00000000000000	0.00000000000000	0.00000000000000	0.00000000000000	0.00000000000000	36.13751300000000	0.00000000000000	0.00000000000000	0.00000000000000	0.00000000000000	
20.62325900000000	47.40082900000000	792.46389899999997	59.96279000000000	0.38620400000000	0.00000000000000	0.09846500000000	0.00000000000000	0.00000000000000	0.00000000000000	0.00000000000000	0.00000000000000	0.00000000000000	0.00000000000000	36.14436100000000	0.00000000000000	0.00000000000000	0.00000000000000	0.00000000000000	
